<svg width="99" height="99" viewBox="0 0 99 99" fill="none" xmlns="http://www.w3.org/2000/svg">
<path d="M82.5 16.5H16.5C11.9501 16.5 8.25 20.2001 8.25 24.75V74.25C8.25 78.7999 11.9501 82.5 16.5 82.5H82.5C87.0499 82.5 90.75 78.7999 90.75 74.25V24.75C90.75 20.2001 87.0499 16.5 82.5 16.5ZM82.5 24.75V26.8579L49.5 52.5278L16.5 26.862V24.75H82.5ZM16.5 74.25V37.3065L46.9672 61.0046C47.6896 61.572 48.5815 61.8804 49.5 61.8804C50.4185 61.8804 51.3104 61.572 52.0328 61.0046L82.5 37.3065L82.5083 74.25H16.5Z" fill="black"/>
</svg>
