<svg width="8" height="8" viewBox="0 0 8 8" fill="none" xmlns="http://www.w3.org/2000/svg">
<path d="M3.72598 6.52296C3.75656 6.56737 3.79748 6.60369 3.84521 6.62878C3.89294 6.65386 3.94606 6.66697 3.99998 6.66697C4.0539 6.66697 4.10702 6.65386 4.15475 6.62878C4.20248 6.60369 4.2434 6.56737 4.27398 6.52296L7.27398 2.18963C7.3087 2.13965 7.32907 2.0811 7.33286 2.02036C7.33665 1.95962 7.32372 1.899 7.29547 1.84509C7.26723 1.79118 7.22475 1.74604 7.17266 1.71458C7.12056 1.68312 7.06084 1.66653 6.99998 1.66663H0.999979C0.93926 1.66688 0.879758 1.68368 0.827872 1.71521C0.775987 1.74675 0.73368 1.79184 0.705502 1.84562C0.677324 1.89941 0.664341 1.95986 0.667949 2.02047C0.671557 2.08108 0.691619 2.13956 0.725979 2.18963L3.72598 6.52296Z" fill="black"/>
</svg>
